<svg width="16" height="16" viewBox="0 0 16 16" fill="none" xmlns="http://www.w3.org/2000/svg">
<path d="M5 0.5C5 0.367392 5.05268 0.240215 5.14645 0.146447C5.24021 0.0526785 5.36739 0 5.5 0H10.5C10.6326 0 10.7598 0.0526785 10.8536 0.146447C10.9473 0.240215 11 0.367392 11 0.5V2.96H13.5C13.6326 2.96 13.7598 3.01268 13.8536 3.10645C13.9473 3.20021 14 3.32739 14 3.46V7.524L15.634 7.979C15.7044 7.99856 15.7697 8.03332 15.8252 8.08084C15.8808 8.12835 15.9252 8.18746 15.9554 8.25401C15.9857 8.32055 16.0009 8.39291 16.0002 8.46599C15.9994 8.53908 15.9826 8.6111 15.951 8.677L14.126 12.465C13.9551 12.272 13.7372 12.1263 13.4935 12.042C13.2498 11.9578 12.9885 11.9378 12.7349 11.9841C12.4812 12.0303 12.2438 12.1412 12.0455 12.306C11.8472 12.4709 11.6948 12.6841 11.603 12.925L11.593 12.948C11.5024 13.1513 11.3861 13.3422 11.247 13.516C10.988 13.836 10.749 13.96 10.507 13.96C10.267 13.96 10.025 13.834 9.761 13.51C9.61471 13.3274 9.493 13.1263 9.399 12.912C9.28915 12.6268 9.09481 12.382 8.84198 12.2102C8.58915 12.0385 8.2899 11.9481 7.98429 11.9512C7.67868 11.9542 7.38129 12.0506 7.13193 12.2273C6.88257 12.404 6.69314 12.6527 6.589 12.94C6.49747 13.145 6.38019 13.3376 6.24 13.513C5.98 13.835 5.74 13.96 5.5 13.96C5.259 13.96 5.02 13.835 4.761 13.516C4.61666 13.3353 4.49694 13.1362 4.405 12.924C4.31129 12.6795 4.1552 12.4638 3.95226 12.2983C3.74932 12.1328 3.5066 12.0234 3.24823 11.9808C2.98986 11.9382 2.72485 11.964 2.47955 12.0556C2.23425 12.1473 2.01721 12.3015 1.85 12.503L0.0480001 8.673C0.0171234 8.60722 0.000954676 8.53551 0.000619888 8.46284C0.0002851 8.39018 0.0157922 8.31831 0.0460615 8.25226C0.0763308 8.1862 0.120635 8.12753 0.175889 8.08034C0.231143 8.03314 0.296019 7.99856 0.366 7.979L2 7.523V3.461C2 3.32839 2.05268 3.20121 2.14645 3.10745C2.24021 3.01368 2.36739 2.961 2.5 2.961H5V0.5ZM10 1H6V2.96H10V1ZM13 7.245V3.961H3V7.244L7.19 6.076C7.71696 5.92912 8.27404 5.92912 8.801 6.076L13 7.246V7.245ZM9.399 12.912L9.401 12.916V12.919L9.399 12.912ZM13.488 13.35L13.485 13.34C13.4592 13.2366 13.401 13.1442 13.3189 13.0762C13.2368 13.0082 13.1351 12.9682 13.0287 12.9621C12.9223 12.9559 12.8167 12.9839 12.7274 13.042C12.638 13.1001 12.5696 13.1853 12.532 13.285L12.527 13.295L12.507 13.346C12.3796 13.6326 12.2156 13.9016 12.019 14.146C11.661 14.586 11.164 14.96 10.5 14.96C9.836 14.96 9.338 14.585 8.978 14.144C8.76936 13.8853 8.5971 13.5994 8.466 13.294L8.461 13.283C8.42471 13.1882 8.36046 13.1068 8.27677 13.0494C8.19309 12.992 8.09393 12.9615 7.99247 12.9618C7.891 12.9621 7.79204 12.9933 7.70872 13.0512C7.62541 13.1091 7.56168 13.191 7.526 13.286L7.521 13.296L7.501 13.347C7.37433 13.6333 7.21096 13.9019 7.015 14.146C6.659 14.586 6.164 14.96 5.5 14.96C4.836 14.96 4.34 14.585 3.982 14.145C3.77388 13.8864 3.60228 13.6003 3.472 13.295L3.468 13.285C3.43044 13.1853 3.36198 13.0991 3.27262 13.041C3.18327 12.9829 3.07768 12.9549 2.97127 12.9611C2.86487 12.9672 2.76321 13.0072 2.68113 13.0752C2.59905 13.1432 2.54084 13.2356 2.515 13.339L2.513 13.347L2.499 13.393C2.4077 13.6683 2.273 13.9272 2.1 14.16C1.793 14.57 1.304 14.96 0.5 14.96C0.367392 14.96 0.240215 15.0127 0.146447 15.1064C0.0526785 15.2002 0 15.3274 0 15.46C0 15.5926 0.0526785 15.7198 0.146447 15.8136C0.240215 15.9073 0.367392 15.96 0.5 15.96C1.696 15.96 2.457 15.352 2.9 14.76C2.95 14.693 2.998 14.625 3.04 14.559C3.091 14.63 3.146 14.703 3.206 14.776C3.66 15.336 4.414 15.96 5.5 15.96C6.586 15.96 7.338 15.335 7.792 14.775C7.86376 14.6865 7.93182 14.5951 7.996 14.501C8.059 14.591 8.128 14.684 8.203 14.777C8.66 15.337 9.414 15.96 10.5 15.96C11.586 15.96 12.34 15.336 12.794 14.776C12.852 14.705 12.906 14.634 12.956 14.564C12.999 14.631 13.046 14.7 13.096 14.768C13.54 15.364 14.303 15.975 15.506 15.96C15.5717 15.9592 15.6365 15.9455 15.6969 15.9196C15.7572 15.8938 15.8119 15.8563 15.8578 15.8093C15.9037 15.7623 15.9398 15.7068 15.9642 15.6458C15.9886 15.5848 16.0008 15.5197 16 15.454C15.9992 15.3883 15.9855 15.3235 15.9596 15.2631C15.9338 15.2028 15.8963 15.1481 15.8493 15.1022C15.8023 15.0563 15.7468 15.0202 15.6858 14.9958C15.6248 14.9714 15.5597 14.9592 15.494 14.96C14.691 14.97 14.204 14.581 13.899 14.171C13.726 13.936 13.5919 13.6746 13.502 13.397L13.488 13.35Z" fill="black"/>
</svg>
