<svg width="60" height="48" viewBox="0 0 60 48" fill="none" xmlns="http://www.w3.org/2000/svg">
<g clip-path="url(#clip0_678_2921)">
<path d="M29.4938 20.3059L26.775 18.7403C26.9157 18.0091 27 17.2684 27 16.5091C27 15.7309 26.9157 14.9809 26.775 14.1653L29.4938 12.6747C29.8963 12.4422 30.098 11.9533 29.9516 11.5122C29.2688 9.38406 28.1813 7.60375 26.7844 6.02594C26.5969 5.815 26.3344 5.70625 26.0625 5.70625C25.8881 5.70625 25.7123 5.75111 25.5544 5.84209L22.7813 7.44437C21.6563 6.47875 20.3719 5.725 18.9469 5.22625V2.02937C18.9469 1.56597 18.6265 1.153 18.1727 1.05812C17.1469 0.843625 16.0875 0.71875 15 0.71875C13.9116 0.71875 12.855 0.844562 11.8303 1.05925C11.3766 1.1545 11.0571 1.56644 11.0571 2.02956V5.2255C9.62814 5.725 8.34002 6.47875 7.21689 7.44437L4.44282 5.84219C4.28532 5.75125 4.10907 5.70625 3.9347 5.70625C3.66348 5.70625 3.4052 5.81584 3.21732 6.02753C1.81782 7.60468 0.727322 9.38406 0.047615 11.5122C-0.0987101 11.9528 0.102946 12.4403 0.505415 12.6747L3.22792 14.2469C3.0872 14.9809 3.00001 15.7309 3.00001 16.5091C3.00001 17.2719 3.08846 18.0128 3.22454 18.7356L0.505415 20.3059C0.102946 20.5403 -0.0987101 21.0278 0.047615 21.3841C0.727303 23.4306 1.80918 25.2925 3.20793 26.8703C3.39564 27.1684 3.66376 27.2715 3.9347 27.2715C4.10917 27.2715 4.28514 27.2267 4.44282 27.1357L7.19064 25.5559C8.31939 26.5319 9.6197 27.2931 11.0569 27.7956V30.954C11.0569 31.4173 11.3774 31.824 11.8311 31.9187C12.8531 32.1278 13.9125 32.259 15 32.259C16.0885 32.259 17.145 32.1268 18.1697 31.9122C18.6235 31.8169 18.9429 31.4113 18.9429 30.9484V27.7965C20.381 27.2936 21.6804 26.5319 22.8091 25.5559L25.5563 27.1403C25.7138 27.2313 25.8899 27.2761 26.0644 27.2761C26.3354 27.2761 26.5937 27.1601 26.7818 26.9482C28.1805 25.3704 29.2718 23.517 29.9515 21.4695C30.1032 21.0278 29.8969 20.5403 29.4938 20.3059ZM15 21.0091C12.5147 21.0091 10.5 18.9944 10.5 16.5091C10.5 14.0237 12.5147 12.0091 15 12.0091C17.4853 12.0091 19.5 14.0237 19.5 16.5091C19.5 18.9944 17.4844 21.0091 15 21.0091ZM58.9219 29.8309C58.8267 29.3772 58.4146 29.0577 57.9507 29.0577H54.7547C54.2556 27.6308 53.5022 26.3408 52.5366 25.2177L54.1388 22.4427C54.2298 22.2852 54.2747 22.109 54.2747 21.9346C54.2747 21.6633 54.1652 21.4051 53.9536 21.2172C52.3757 19.8184 50.5157 18.7272 48.4682 18.0475C48.0273 17.9011 47.5384 18.1028 47.3057 18.5053L45.7335 21.2278C44.9157 21.0841 44.1657 20.9997 43.4719 20.9997C42.7091 20.9997 41.9682 21.0881 41.2454 21.2242L39.675 18.5059C39.4425 18.1035 38.9533 17.9019 38.5125 18.0481C36.466 18.7278 34.6041 19.8097 33.0263 21.2085C32.8144 21.3963 32.7058 21.6638 32.7058 21.9348C32.7058 22.1093 32.7507 22.2853 32.8417 22.443L34.4279 25.1908C33.452 26.3195 32.6908 27.6198 32.1883 29.057H29.025C28.5618 29.057 28.1348 29.3751 28.0397 29.8288C27.825 30.8528 27.7219 31.9122 27.7219 32.9997C27.7219 34.0881 27.8329 35.1465 28.0475 36.1703C28.1344 36.6278 28.5657 36.9465 29.025 36.9465H32.1835C32.6864 38.3847 33.4482 39.684 34.4241 40.8128L32.8378 43.5606C32.7468 43.7181 32.7019 43.8943 32.7019 44.0687C32.7019 44.3398 32.7998 44.607 33.0117 44.7951C34.5895 46.1939 36.4617 47.2757 38.5082 47.9554C38.9491 48.1019 39.4384 47.9001 39.6707 47.4976L41.2401 44.7789C41.9625 44.9153 42.7032 44.9997 43.4719 44.9997C44.247 44.9997 45 44.9121 45.7341 44.7717L47.3063 47.4942C47.5388 47.8966 48.0277 48.0984 48.4688 47.9519C50.5163 47.2723 52.3772 46.1801 53.9551 44.7813C54.1667 44.5933 54.2751 44.3359 54.2751 44.0649C54.2751 43.8904 54.2303 43.7146 54.1393 43.5568L52.5371 40.7818C53.5018 39.6586 54.2565 38.3686 54.7552 36.9418H57.9512C58.4146 36.9418 58.8277 36.6213 58.9233 36.1676C59.1376 35.1465 59.2594 34.0872 59.2594 32.9997C59.2594 31.9122 59.1376 30.8528 58.9219 29.8309ZM43.4719 37.4997C40.9866 37.4997 38.9719 35.485 38.9719 32.9997C38.9719 30.5144 40.9866 28.4997 43.4719 28.4997C45.9572 28.4997 47.9719 30.5144 47.9719 32.9997C47.9719 35.485 45.9563 37.4997 43.4719 37.4997Z" fill="white"/>
</g>
<defs>
<clipPath id="clip0_678_2921">
<rect width="60" height="48" fill="white"/>
</clipPath>
</defs>
</svg>
