<svg width="42" height="42" viewBox="0 0 42 42" fill="none" xmlns="http://www.w3.org/2000/svg">
<path d="M21 3.5C11.3348 3.5 3.5 11.3348 3.5 21C3.5 30.6652 11.3348 38.5 21 38.5C30.6652 38.5 38.5 30.6652 38.5 21C38.5 11.3348 30.6652 3.5 21 3.5Z" stroke="white" stroke-width="1.5" stroke-linecap="round" stroke-linejoin="round"/>
<path d="M7.47461 32.1055C7.47461 32.1055 11.3754 27.125 21.0004 27.125C30.6254 27.125 34.5279 32.1055 34.5279 32.1055M21.0004 21C22.3927 21 23.7281 20.4469 24.7127 19.4623C25.6972 18.4777 26.2504 17.1424 26.2504 15.75C26.2504 14.3576 25.6972 13.0223 24.7127 12.0377C23.7281 11.0531 22.3927 10.5 21.0004 10.5C19.608 10.5 18.2726 11.0531 17.288 12.0377C16.3035 13.0223 15.7504 14.3576 15.7504 15.75C15.7504 17.1424 16.3035 18.4777 17.288 19.4623C18.2726 20.4469 19.608 21 21.0004 21Z" fill="white"/>
<path d="M7.47461 32.1055C7.47461 32.1055 11.3754 27.125 21.0004 27.125C30.6254 27.125 34.5279 32.1055 34.5279 32.1055M21.0004 21C22.3927 21 23.7281 20.4469 24.7127 19.4623C25.6972 18.4777 26.2504 17.1424 26.2504 15.75C26.2504 14.3576 25.6972 13.0223 24.7127 12.0377C23.7281 11.0531 22.3927 10.5 21.0004 10.5C19.608 10.5 18.2726 11.0531 17.288 12.0377C16.3035 13.0223 15.7504 14.3576 15.7504 15.75C15.7504 17.1424 16.3035 18.4777 17.288 19.4623C18.2726 20.4469 19.608 21 21.0004 21Z" stroke="white" stroke-width="1.5" stroke-linecap="round" stroke-linejoin="round"/>
<path d="M33.5 32C30.5 35 28.5 37 21.5 38C14 37.5238 9 33.5 8.5 32C10 30 14.5 28.4762 21.5 28C28.4036 28 30 29.7381 33.5 32Z" fill="white"/>
<path d="M30.0342 34.9336C30.2 34.8507 30.3557 34.7567 30.5131 34.659C30.644 34.5778 30.5443 34.7066 30.4562 34.7227C30.3923 34.7343 30.3587 34.7612 30.3055 34.7896C30.262 34.8128 30.4692 34.6791 30.4779 34.6741C30.9479 34.402 31.4848 34.0538 31.7824 33.6074" stroke="white" stroke-width="3" stroke-linecap="round"/>
<path d="M32.8135 32.7398C32.8518 32.7355 32.9017 32.7159 32.9352 32.6992" stroke="white" stroke-width="3" stroke-linecap="round"/>
<path d="M16.4351 37.0605L16.4121 37.0835" stroke="white" stroke-width="3" stroke-linecap="round"/>
<path d="M15.4004 36.416H15.4234" stroke="white" stroke-width="3" stroke-linecap="round"/>
<path d="M13.7227 35.8647C13.7816 35.802 13.7603 35.7136 13.7686 35.6348" stroke="white" stroke-width="3" stroke-linecap="round"/>
<path d="M9.49219 32.1406H9.51518" stroke="white" stroke-width="3" stroke-linecap="round"/>
</svg>
