<svg width="48" height="48" viewBox="0 0 48 48" fill="none" xmlns="http://www.w3.org/2000/svg">
<path d="M44 23.9998C42.785 28.6898 36.038 32.4668 33 32.9998C30.57 38.9698 24.038 39.5328 21 38.9998L25 32.9998C20.544 32.5728 15.025 27.9538 13 25.9998C10.386 28.8498 6.194 31.0798 4 31.9688C7.646 24.2938 5.519 17.3088 4 14.9998C6.835 14.9998 11.143 18.2238 13 19.9998C15.025 17.8678 21.962 14.8878 25 13.9998L21 8.99984C28.696 8.14684 32.156 11.8678 33 13.9998C40.696 15.7058 43.662 21.6898 44 23.9998Z" fill="white" stroke="white" stroke-width="4" stroke-linecap="round" stroke-linejoin="round"/>
<path d="M36 26C37.1046 26 38 25.1046 38 24C38 22.8954 37.1046 22 36 22C34.8954 22 34 22.8954 34 24C34 25.1046 34.8954 26 36 26Z" fill="#022C57"/>
</svg>
