<svg width="48" height="48" viewBox="0 0 48 48" fill="none" xmlns="http://www.w3.org/2000/svg">
<path d="M24.0004 6C21.4604 6 19.2004 7.6 18.3604 10H6.00035V14H9.90035L4.00035 28C3.06035 32 6.00035 34 11.0004 34C16.0004 34 19.1204 32 18.0004 28L12.1004 14H18.3404C19.0004 15.7 20.3004 17 22.0004 17.66V40H4.00035V44H44.0004V40H26.0004V17.64C27.7004 17 29.0004 15.7 29.6404 14H35.9004L30.0004 28C29.0604 32 32.0004 34 37.0004 34C42.0004 34 45.1204 32 44.0004 28L38.1003 14H42.0004V10H29.6604C28.8004 7.6 26.5404 6 24.0004 6ZM24.0004 10C24.5308 10 25.0395 10.2107 25.4146 10.5858C25.7896 10.9609 26.0004 11.4696 26.0004 12C26.0004 12.5304 25.7896 13.0391 25.4146 13.4142C25.0395 13.7893 24.5308 14 24.0004 14C23.4699 14 22.9612 13.7893 22.5861 13.4142C22.2111 13.0391 22.0004 12.5304 22.0004 12C22.0004 11.4696 22.2111 10.9609 22.5861 10.5858C22.9612 10.2107 23.4699 10 24.0004 10ZM11.0004 20.5L14.0004 28H8.00035L11.0004 20.5ZM37.0004 20.5L40.0004 28H34.0004L37.0004 20.5Z" fill="white"/>
</svg>
