<svg width="38" height="15" viewBox="0 0 38 15" fill="none" xmlns="http://www.w3.org/2000/svg">
<path d="M6.93 14.36C5.166 14.36 3.708 13.73 2.592 12.47C1.44 11.228 0.882 9.59 0.882 7.574C0.882 5.594 1.44 3.992 2.592 2.75C3.726 1.526 5.166 0.913999 6.93 0.913999C8.694 0.913999 10.17 1.526 11.322 2.75C12.456 4.01 13.032 5.612 13.032 7.574C13.032 9.59 12.456 11.228 11.322 12.47C10.17 13.73 8.694 14.36 6.93 14.36ZM6.948 12.452C8.1 12.452 9.054 12.02 9.774 11.12C10.476 10.238 10.836 9.05 10.836 7.574C10.836 6.17 10.476 5.018 9.774 4.118C9.054 3.254 8.1 2.822 6.948 2.822C5.76 2.822 4.824 3.254 4.14 4.118C3.42 5.018 3.078 6.17 3.078 7.574C3.078 9.05 3.42 10.238 4.14 11.12C4.842 12.02 5.778 12.452 6.948 12.452ZM20.0599 14.342C18.4219 14.342 17.1439 13.964 16.2259 13.208C15.3079 12.452 14.8039 11.372 14.7319 9.932H16.8559C16.9819 11.696 18.0619 12.56 20.0779 12.56C20.9779 12.56 21.6619 12.398 22.1479 12.056C22.6339 11.714 22.8859 11.228 22.8859 10.598C22.8859 10.094 22.7059 9.698 22.3459 9.392C21.9859 9.104 21.3919 8.852 20.5639 8.672L18.4759 8.186C16.2259 7.682 15.1099 6.53 15.1099 4.73C15.1099 3.65 15.5059 2.732 16.3339 1.976C17.1259 1.256 18.2779 0.895999 19.7719 0.895999C21.2479 0.895999 22.4179 1.256 23.3179 1.976C24.1999 2.696 24.6859 3.686 24.7939 4.946H22.6879C22.5979 4.226 22.2919 3.668 21.7879 3.272C21.2839 2.876 20.5999 2.678 19.7539 2.678C18.9619 2.678 18.3499 2.858 17.9179 3.182C17.4679 3.506 17.2519 3.956 17.2519 4.514C17.2519 5.378 17.8639 5.936 19.1059 6.188L21.5179 6.746C23.8939 7.304 25.0999 8.528 25.0999 10.418C25.0999 11.624 24.6499 12.578 23.7679 13.28C22.8859 14 21.6439 14.342 20.0599 14.342ZM27.2426 1.184H31.9046C33.8486 1.184 35.3066 1.742 36.2966 2.84C37.2686 3.938 37.7726 5.522 37.7726 7.592C37.7726 9.644 37.2686 11.21 36.2786 12.326C35.2886 13.442 33.8306 14 31.9226 14H27.2426V1.184ZM29.4206 12.146H31.7066C33.0566 12.146 34.0466 11.786 34.6586 11.066C35.2706 10.346 35.5766 9.176 35.5766 7.592C35.5766 5.99 35.2526 4.82 34.6226 4.1C33.9926 3.38 32.9666 3.002 31.5626 3.002H29.4206V12.146Z" fill="white"/>
</svg>
