<svg width="38" height="36" viewBox="0 0 38 36" fill="none" xmlns="http://www.w3.org/2000/svg">
<path d="M16 0C20.42 0 24 3.58 24 8C24 12.42 20.42 16 16 16C11.58 16 8 12.42 8 8C8 3.58 11.58 0 16 0ZM24 21.08C24 23.2 23.44 28.14 19.62 33.66L18 24L19.88 20.24C18.64 20.1 17.34 20 16 20C14.66 20 13.36 20.1 12.12 20.24L14 24L12.38 33.66C8.56 28.14 8 23.2 8 21.08C3.22 22.48 0 25 0 28V36H32V28C32 25 28.8 22.48 24 21.08Z" fill="white"/>
<path d="M33.3282 4H29.4435C27.5445 4 26 5.54186 26 7.4375C26 8.07021 26.5133 8.5511 27.1478 8.5511C27.7824 8.5511 28.2957 8.03834 28.2957 7.4375C28.2957 6.80586 28.81 6.29167 29.4435 6.29167H33.3282C34.3505 6.29167 35.1826 7.12204 35.1826 8.14612C35.1826 8.85224 34.7891 9.48782 34.0886 9.84088L30.5841 11.8916C30.2003 12.0992 30.0174 12.4752 30.0174 12.8798V14.3121C30.0174 14.9448 30.5307 15.4576 31.1652 15.4576C31.7998 15.4576 32.3131 14.9448 32.3131 14.3121V13.5351L35.1826 11.8522C36.5984 11.145 37.4783 9.72451 37.4783 8.14612C37.4783 5.85983 35.6167 4 33.3282 4ZM31.1652 17.1767C30.3729 17.1767 29.7304 17.818 29.7304 18.609C29.7304 19.4 30.3729 20.0091 31.1652 20.0091C31.9576 20.0091 32.6 19.3681 32.6 18.609C32.6 17.8499 31.9579 17.1767 31.1652 17.1767Z" fill="white"/>
</svg>
