<svg width="33" height="35" viewBox="0 0 33 35" fill="none" xmlns="http://www.w3.org/2000/svg">
<path d="M16.5 0C10.7175 0 6 4.7175 6 10.5C6 14.0685 7.815 17.226 10.5465 19.125C4.389 21.528 0 27.528 0 34.5H3C3 27.903 7.7865 22.389 14.0625 21.234L15 24H18L18.9375 21.234C25.2135 22.389 30 27.903 30 34.5H33C33 27.528 28.611 21.528 22.4535 19.125C25.1835 17.226 27 14.0685 27 10.5C27 4.7175 22.2825 0 16.5 0ZM16.5 3C20.6595 3 24 6.3405 24 10.5C24 14.6595 20.6595 18 16.5 18C12.3405 18 9 14.6595 9 10.5C9 6.3405 12.3405 3 16.5 3ZM15 25.5L13.5 34.5H19.5L18 25.5H15Z" fill="white"/>
</svg>
